<?xml version="1.0" encoding="UTF-8"?>
<svg id="Layer_2" data-name="Layer 2" xmlns="http://www.w3.org/2000/svg" viewBox="0 0 321.32 395.1">
  <defs>
    <style>
      .cls-1 {
        fill: #fff;
        stroke: #000;
        stroke-miterlimit: 10;
      }
    </style>
  </defs>
  <g id="Layer_1-2" data-name="Layer 1">
    <path class="cls-1" d="m300.04,163.54c-5.84-5.89-13.35-11.84-13.35-11.85-13-10.32-24.35-16.05-30.25-26.84-1.75-3.2-2.56-5.95-2.82-6.88-1.69-6.06-1.24-11.36-.68-14.61,0,0,0,0,0,0,.92-3.44,2.17-8.36,3.5-14.31,7.01-31.42,10.45-47.27,5.58-59.04-8.37-20.21-39.89-24.72-61.29-27.78-18.27-2.62-52.16-4.47-94.02,11.62-12.74,6.66-33.41,19.6-51.69,42.72-24.03,30.38-30.77,61.69-32.99,76.71-1.27,3.14-3.34,7.88-6.42,13.42-1.64,2.95-2.6,4.29-4.18,6.97-2.1,3.56-4.98,8.84-7.9,15.81-5.16,19.06-3.76,35.22,4.54,40.25,1.25.76,2.8,1.35,4.75,1.59,2.17-.9,5.1-2.54,6.51-5.58,1.26-2.7.35-4.44,0-11.16-.37-7.01-.52-10.81,1.87-13.29,1.75-1.82,4.1-2.15,6.12-2.4,7-.88,12.9,2.02,16.65,4.07,12.64,6.92,21.12,15.23,23.66,17.78,8.57,8.63,13.11,15.78,16.33,20.93,7.25,11.59,7.44,16.04,7.12,18.84-.2,1.78-.96,5.82-6.7,12.56-6.88,8.07-16.16,18.97-30.89,19.06-17.91.11-28.82-15.85-29.75-17.25-3.08-5.9-4.13-10.94-4.48-14.64-.6-6.32.7-10.38-1.89-12.58-2.06-1.74-6.08-1.9-8.61-.17-8.64,5.87-.63,33.98,8.26,47.53,6.68,10.17,11.09,10.83,20.36,17.75,3.79,2.83,6.64,5.34,12.18,10.6,22.2,21.09,35.11,42.51,35.11,42.51,7.75,12.85,10.88,21.84,18.91,26.12,5.4,2.88,14.67,5.26,18.18,2.92,0,0,0,0,0,0,1.01-.04,5.44-.26,10.83,1.16,2.75.73,4.04,1.37,4.47,1.72,4.43,3.66.33,10.93,3.92,14.62,3.09,3.17,11.05,2.84,14.58-.93,4.73-5.05-.03-14.63,4.93-17.73.22-.14,1.69-1.02,3.24-.62,2.45.65,4.13,4.29,4.19,9.24.28,1.75,1.32,6.88,5.6,9.8,6,4.1,14.78,1.39,19.46-2.8,6.26-5.6,6.74-15.27,7.31-26.65.12-2.36.11-4.3.09-5.6,35.72-18.15,60.07-39.38,75.13-54.7,24.23-24.65,41.11-41.76,44.63-69.74,2.74-21.75-2.42-51.37-20.09-69.17Zm-137.81,158.41c-1.26,2.81-5.53,4.14-8.88,3.9-4.1-.3-6.26-2.92-9.16-5.03-11.17-8.12-30.64-6.81-38.65-3.41-1.07.46-4.29,1.94-8.36,1.45-2.21-.27-4.39-1.08-5.63-2-4.32-3.2-3.36-12.28-1.3-21.2,2.1-9.1,6.48-22.97,16.56-39.49,1.63,1.54,4.02,3.81,6.9,6.54,1.14,1.09,19.54,18.68,42.15,45.79,3.89,4.66,8.02,9.74,6.36,13.45Zm59.05-41.81c-32.61,0-59.05-26.44-59.05-59.05s26.44-59.05,59.05-59.05,59.05,26.44,59.05,59.05-26.44,59.05-59.05,59.05Z"/>
  </g>
</svg>